<?xml version="1.0"?>
<svg width="400" height="400" xmlns="http://www.w3.org/2000/svg" xmlns:svg="http://www.w3.org/2000/svg" xmlns:xlink="http://www.w3.org/1999/xlink" preserveAspectRatio="xMidYMid meet" version="1.0">
 <!-- Created with SVG-edit - https://github.com/SVG-Edit/svgedit-->
 <defs>
  <symbol height="98.224mm" id="svg_2" version="1.1" viewBox="0 0 270.56 98.224" width="270.56mm" xmlns="http://www.w3.org/2000/svg">
   <path d="m1.53,97.54c-1.76,-0.77 -1.97,-2.94 -0.79,-8.25c0.7,-3.17 1.96,-5.51 2.79,-6.45c0.8,-0.9 1.91,-1.45 3.69,-1.46c2.88,-0.01 4.58,1.2 4.19,3.92l-0.19,1.33l-3.01,0.01l0.2,-1.1c0.24,-1.27 -0.21,-1.78 -1.22,-1.77c-0.79,0 -1.67,0.83 -2.13,1.71c-0.4,0.78 -2.07,7.27 -2.07,8.35c0,0.97 0.59,2.01 1.53,2.01c2.06,-0.08 2.16,-2.08 2.6,-3.58l2.92,-0.04c-0.81,4.87 -4.17,7.05 -8.51,5.32zm10.17,-0.41c-0.87,-0.87 -0.55,-1.42 -0.1,-4c0.5,-2.82 1.2,-5.18 2,-6.14c1.72,-2.09 5.97,-2.24 6.68,-0.07c0.5,1.54 -0.53,7.87 -1.69,9.51c-0.75,1.05 -2.34,1.77 -4.35,1.77c-1.6,0 -1.84,-0.37 -2.54,-1.07zm4.48,-1.7c0.23,-0.26 0.79,-2.04 1.18,-3.88c0.76,-3.57 0.5,-4.23 -0.67,-4.23c-1.4,0 -1.67,0.51 -2.6,4.97c-0.46,2.16 -0.51,2.8 -0.25,3.11c0.78,0.9 1.91,0.75 2.34,0.03zm27.29,2.29c-1.1,-0.4 -1.59,-1.22 -1.59,-2.64l0.13,-1.22l2.78,0c-0.23,1.08 -0.12,2.24 0.83,2.35c0.66,0.06 1.1,-0.35 1.43,-0.86c0.57,-0.87 0.02,-1.55 -1.82,-2.97c-1.68,-1.3 -2.05,-2.04 -1.86,-3.71c0.25,-2.16 2.25,-3.42 5.05,-3.19c2.02,0.17 2.72,0.67 2.72,2.43l0.01,1.42l-2.66,-0.01l0,-0.71c0.01,-1.16 -1.51,-1.62 -2.16,-0.57c-0.52,0.82 -0.28,1.18 0.77,2.13c0.68,0.63 1.59,1.21 1.98,1.56c0.99,0.89 1.18,2.13 0.54,3.57c-0.6,1.34 -1.18,2.12 -2.42,2.54c-0.92,0.31 -3.02,0.14 -3.73,-0.12zm14.81,0.06c-1.26,-0.46 -1.55,-1.89 -1.01,-4.88c0.81,-4.52 2,-6.72 3.9,-7.25c2.27,-0.63 4.6,-0.07 5.1,1.23c0.33,0.88 0.15,2.77 -0.58,5.87c-0.94,4.07 -2.19,5.34 -5.19,5.3c-0.84,-0.01 -1.84,-0.13 -2.22,-0.27zm3.87,-2.45c0.63,-0.97 1.72,-6.46 1.43,-7.21c-0.41,-1.11 -2.06,-0.71 -2.58,0.62c-0.15,0.4 -0.55,2.01 -0.87,3.57c-0.48,2.32 -0.52,2.9 -0.25,3.24c0.53,0.64 1.78,0.51 2.27,-0.22zm29.69,-0.56c0.14,-2.03 1.19,-6.14 1.91,-7.2c0.99,-1.47 2.2,-2.3 4.26,-2.2c2.86,0.14 3.36,1 2.86,4.7l-0.26,2.17l-5.82,0.04c-0.01,0.11 -0.12,0.73 -0.25,1.39c-0.27,1.42 0.01,2.41 0.9,2.41c1.71,0.09 1.89,-1.84 2.05,-2.24l2.74,-0.04c-0.06,2 -1.36,3 -2.38,3.8c-1.23,0.99 -3.93,0.54 -4.51,0.07c-1.4,-0.86 -1.55,-1.58 -1.5,-2.9zm3.75,-4.6l2.74,-0.02c1.22,-3.47 -2.66,-3.76 -2.74,0.02zm6.63,7.04c-0.71,-0.91 -0.42,-1.49 0.4,-5.41c1,-4.7 1.76,-5.95 3.81,-6.23c0.87,-0.11 1.27,-0.02 1.87,0.42l0.77,0.57l1.09,-4.73l2.65,-0.04l-3.36,15.99l-2.69,0.01l0.01,-0.34c0,-0.49 0.06,-0.47 -0.8,0.12c-1.3,0.88 -2.7,0.8 -3.48,-0.07l-0.27,-0.29zm4.47,-1.65c0.41,-0.45 1.76,-5.74 1.76,-6.88c0,-1.31 -1.82,-1.4 -2.34,-0.11c-0.39,0.95 -1.35,5.3 -1.35,6.16c-0.01,1.26 1.19,1.94 1.93,0.83zm6.71,2.08c-0.91,-0.37 -1.46,-1.44 -1.45,-2.84c0.02,-1.92 1.01,-6.08 1.76,-7.36c0.92,-1.58 2.53,-2.34 4.65,-2.18c2.78,0.2 3.38,1.43 2.59,5.32l-0.25,1.76c-1.82,0 -5.22,0.04 -5.62,0.03l-0.3,1.93c-0.12,3.3 2.82,1.64 2.95,-0.6l2.42,-0.03c0.11,0.09 0.01,0.39 -0.08,0.73c-0.69,3.58 -4.03,4.17 -6.67,3.24zm5.15,-7.48c0.35,-0.88 0.25,-2.51 -0.58,-2.73c-1.27,-0.31 -2.18,1.7 -2.06,2.71l2.64,0.02zm9.59,5.29c-0.01,-1.54 0.91,-2.95 2.01,-3.74c0.44,-0.31 1.5,-0.82 2.41,-1.19c2.22,-0.76 2.78,-1.65 2.68,-2.52c-1.04,-1.53 -3.11,0.06 -3.09,1.28l-2.51,-0.02c0.24,-0.88 0.3,-1.48 0.76,-2.07c1.9,-2.43 7.72,-2.47 7.78,0.57c-0.67,3.35 -1.53,6.79 -1.92,10.02l-2.75,0.02c-0.13,0 0.03,-0.33 0.03,-0.53c0,-0.51 0.06,-0.48 -0.87,0.15c-2.59,1.42 -4.5,0.58 -4.53,-1.97zm5.08,0.07c0.29,-0.31 0.78,-1.38 0.93,-2.09c0.45,-2.08 0.46,-2.03 -0.85,-1.3c-0.64,0.36 -1.48,0.99 -1.65,1.19c-0.49,0.6 -0.79,1.53 -0.56,2.03c0.34,0.76 1.5,0.97 2.13,0.17zm16.09,1.92c-0.9,-0.73 -0.94,-2.19 -0.14,-5.75c1.13,-5.09 2.08,-5.73 3.65,-6.18c1.58,-0.26 2.31,-0.12 3.08,1.13l0.99,-4.87l2.65,0.01l-3.42,15.98l-2.61,0.02l0.01,-0.74c-0.96,0.66 -2.29,2.07 -4.35,0.4l0.14,0zm4.27,-1.97c0.42,-0.46 1.53,-5.8 1.54,-6.97c0,-1.17 -1.17,-1.55 -1.98,-0.65c-0.46,0.51 -1.47,5.43 -1.5,6.8c-0.02,1.26 1.11,1.74 1.94,0.82zm6.51,2.04c-0.98,-0.55 -1.26,-1.18 -1.26,-2.75c0,-1.34 0.93,-5.16 1.48,-6.52c1.23,-3.45 7.76,-4.29 7.78,-0.22c0,0.76 -0.13,1.99 -0.29,2.72l-0.33,1.47l-5.6,0.01l-0.25,1.28c-0.28,1.46 0.01,2.42 0.93,2.56c1.64,0.13 1.88,-1.73 2.09,-2.39l2.77,0.02c-0.1,1.25 -1.35,3.29 -2.34,3.83c-1.17,0.65 -3.87,0.61 -4.98,-0.01zm5.32,-7.31c1.19,-4.41 -3.26,-2.72 -2.83,0.03l2.83,-0.03zm25.03,7.35c-1.34,-1.07 -1.77,-2.14 -0.89,-6.19c1.02,-4.68 3.44,-5.99 5.93,-6.06c2.5,-0.07 4.19,2.2 2.39,6.94l-5.7,-0.03l-0.4,1.81c-0.25,1.16 0.27,2.04 1.18,2.07c1.35,0.03 1.68,-1.56 1.78,-2.2l2.62,-0.03c0.06,1.34 -0.83,2.75 -1.83,3.46c-1.22,0.88 -3.84,1.22 -5.08,0.23zm2.5,-7.38l2.7,0.03c1.11,-4.96 -3.46,-2.19 -2.7,-0.03zm7.12,7.33c-1.31,-0.71 -1.43,-1.83 -0.61,-5.63c1.02,-4.77 2.29,-6.02 4.5,-6.37c2.41,-0.39 4.03,0.52 3.98,2.36l-0.22,1.94l-2.73,0.07l0.23,-1.14c0.24,-1.22 -0.8,-1.63 -1.59,-0.92c-0.53,0.48 -1.45,3.53 -1.82,6.34c-0.15,1.16 0.06,1.71 0.46,1.86c1.56,0.26 1.93,-1.87 2.06,-2.83l2.56,-0.03c-0.19,2.14 -1.3,3.72 -2.64,4.58c-1,0.6 -3.16,0.33 -4.18,-0.23zm9.37,0.47c-1.59,-0.23 -1.73,-0.83 -0.56,-6.19c0.43,-1.99 1.04,-3.94 0.96,-3.94l-0.98,-0.01l0.27,-2.04l1.25,-0.03l0.61,-3.25l2.78,0l-0.81,3.19l1.34,-0.03l-0.38,2.13l-1.35,0.02c-1.14,6.8 -2.81,8.19 -0.46,7.99l-0.37,1.89c-0.64,0.35 -1.37,0.4 -2.3,0.27zm16.96,-0.31c-0.82,-0.36 -1.25,-1.26 -1.25,-2.26c0,-1.2 1.29,-6.8 1.75,-7.68c1.12,-2.15 3.54,-2.89 5.69,-1.86c1.05,0.74 1.53,1.23 1.06,4.02l-2.53,-0.01c0.77,-2.67 -1.44,-3.33 -2.15,-0.57c-0.15,0.6 -1.06,4.08 -1.07,5.37c-0.01,1.75 2.17,2.11 2.24,-1.46l2.93,-0.04c-0.28,3.49 -2.97,6.26 -6.67,4.49zm13.56,-0.25c-0.74,-0.82 -0.63,-2.15 -0.01,-5.21c1.05,-5.19 2.18,-6.45 4.26,-6.73c1.35,-0.13 1.39,0.11 2.34,1.17l0.97,-4.91l2.89,0.02l-3.38,16.02l-2.73,0.03l0.06,-0.82c-1.12,0.99 -1.62,1.13 -2.91,1.16c-0.54,0 -1.22,-0.43 -1.49,-0.73zm4.37,-1.82c0.64,-0.7 1.98,-6.86 1.62,-7.44c-0.41,-0.65 -1.24,-0.68 -1.8,-0.06c-0.48,0.53 -1.95,5.04 -1.97,6.39c0.13,1.76 1.46,1.83 2.15,1.11zm5.38,1.66c-0.54,-0.59 -0.67,-1.85 -0.09,-3.53c0.47,-1.34 1.51,-2.03 3.92,-3.06c2.18,-0.92 3.17,-1.93 2.6,-2.62c-2.05,-1.25 -2.72,0.4 -2.95,1.34l-2.48,-0.05c-0.07,-0.12 0.15,-0.81 0.48,-1.45c1,-2 3.46,-3 6.22,-2.23c1.83,0.5 1.63,0.64 0.47,7.56l-0.78,4.67l-2.55,0l0.01,-0.81c-1.33,0.68 -3.17,1.84 -4.85,0.19l0,-0.01zm4.71,-1.65c0.42,-0.65 1.23,-3.77 1.04,-3.96c-0.18,-0.18 -3,1.78 -3.16,2.2c-0.22,0.57 -0.21,1.84 0.01,2.06c0.72,0.33 1.76,0.19 2.11,-0.3zm5.89,2.05c-0.93,-0.89 -0.85,-2.02 -0.1,-5.7c0.82,-4.01 1.41,-5.32 2.54,-6.01c1.92,-1.06 3.44,-0.37 4.1,0.66l0.89,-4.8l2.83,-0.02c-0.15,0.45 -3.47,15.77 -3.47,16.04l-2.58,0l0.11,-0.95c0.08,-0.43 -0.32,0.1 -1.05,0.71c-0.88,0.74 -2.39,0.58 -3.27,0.07zm4.23,-2.1c0.53,-0.6 1.36,-3.59 1.61,-5.83c0.09,-0.99 0.08,-1.54 -0.25,-1.81c-1.53,-0.82 -2.16,0.31 -2.95,4.23c-0.44,2.18 -0.56,3.17 -0.33,3.6c0.61,0.68 1.55,0.19 1.92,-0.19zm-243.68,2.18l2.53,-12.02l2.7,0.01l-0.06,0.96c1.65,-1.23 3.36,-1.96 5.3,0.03c0.97,-1.16 2.77,-1.59 4.02,-1.14c1.37,0.52 1.42,1.05 0.5,5.38l-1.41,6.69l-2.6,-0.02l1.14,-5.02c1.17,-4.23 0.88,-5.25 -0.38,-5.1c-1.28,0.15 -1.96,1.42 -3.41,8.62l-0.3,1.52l-2.57,0.01c0,-0.21 0.47,-2.34 0.89,-4.28c1.14,-5.28 1.12,-5.15 0.68,-5.52c-0.57,-0.47 -1.62,-0.49 -2.18,0.26c-0.27,0.37 -0.73,1.8 -1.02,3.18c-0.45,2.12 -0.82,4.31 -1.27,6.43l-2.56,0.01zm18.55,-12.13l2.73,0.05l-2.43,12.02l-2.84,0l2.54,-12.07zm11.78,12.1l2.65,-11.94l2.66,0l-2.57,11.95l-2.74,-0.01zm17.73,-11.96l2.79,0.03c0.22,0 0.01,0.81 0.01,0.87c0.58,-1.09 2.56,-1.68 3.82,-1.04c1.08,0.58 1.05,1.26 0.05,6.59l-1.04,5.54l-2.72,0.01l0.86,-4.6c1.05,-4.29 1.06,-5.34 0.1,-5.45c-0.82,-0.09 -1.62,0.37 -2.81,5.39l-0.8,4.66l-2.71,0.01l2.45,-12.01zm12.65,12.11l3.19,-15.95l8.3,-0.02l-0.36,1.99l-5.53,0.01l-0.9,4.27l5.14,0.09l-0.34,2.16l-5.26,-0.02l-1.52,7.4l-2.72,0.07zm40.12,-0.03l2.36,-12.05l2.63,-0.03l-0.19,1.75c0.65,-0.68 1.59,-2.04 3.13,-1.92l-0.47,3.16c-2.57,0.24 -3.28,1.02 -3.74,3.03l-0.93,6.02l-2.79,0.04zm16.79,-0.04l3.39,-15.92l2.83,0.02l-3.36,15.89l-2.86,0.01zm34.65,-0.07l3.34,-16.08l8.44,-0.08l-0.51,2.4l-5.4,0.06l-0.77,4.23l4.96,0.01l-0.38,2.3l-5.08,-0.02l-1.01,4.89l5.16,0.01l-0.4,2.26l-8.35,0.02zm10.32,-0.25l3.34,-15.83l2.73,0.06l-3.34,15.82l-2.73,-0.05zm29.49,0.35l2.42,-12.13l2.7,-0.03c-0.68,4.4 -0.41,0.33 2.69,0.07l-0.56,3.13c-1.53,0 -2.87,0.56 -3.56,3.84l-0.79,5.1l-2.9,0.02zm9.4,-12.09l2.68,0.01l-2.57,11.86l-2.62,-0.03l2.51,-11.84zm11.79,11.98l2.33,-11.89l2.78,0.04l-2.54,11.89l-2.57,-0.04zm-194.26,-13.48l0.45,-2.72l2.69,0l-0.66,2.71l-2.48,0.01zm14.79,-2.58l2.61,0.03l-0.63,2.58l-2.58,-0.06l0.6,-2.55zm9.53,-0.28l3.13,-0.02l-3.63,2.94l-2.18,0l2.68,-2.92zm158.49,2.87l0.41,-2.47l2.79,0.03l-0.41,2.45l-2.79,-0.01zm14.86,-2.37l2.53,-0.02l-0.48,2.27l-2.69,0.01l0.64,-2.26zm-150.81,-9.64c-5.67,-0.57 -10.29,-2.63 -14.29,-6.36c-9.03,-8.45 -11.4,-22.88 -6.34,-38.65c3.48,-10.87 10.94,-19.77 20.36,-24.28c20.65,-8.98 36.81,4.05 39.72,20.72c0.08,-0.08 0.13,-0.56 0.18,-0.82c0.07,-0.4 1.01,-5.4 2.07,-11.11l1.93,-10.39l79.96,0c-1.22,6.04 -2.28,11.29 -3.38,16.67l-23.09,0.13l-1.72,9.2l22.8,0.2l-2.58,16.93l-23.38,0l-1.93,10.48l23.03,-0.02l-3.54,17.19l-40.25,0.06l4.97,-27.45l-21.35,0l-5.56,26.96l-16.98,-0.07c-0.07,-0.07 3.04,-16.97 3.26,-17.69c-0.81,1.08 -4.81,6.26 -6.59,8.17c-5.95,6.24 -12.25,9.4 -20.16,10.14c-3.22,0.3 -4.05,0.3 -7.14,-0.01zm9.52,-2.22c9.48,-1.54 18.05,-8.41 23.24,-18.6c0.79,-1.56 1.52,-3.11 1.62,-3.43l0.18,-0.6l-13.15,0l-1.43,2c-2.04,2.85 -4.62,5.19 -6.94,6.3c-7.42,3.53 -13.76,2.86 -18.28,-1.93c-3.69,-3.91 -4.92,-8.8 -4.05,-16.03c0.48,-4.01 0.91,-5.8 2.14,-8.8c1.88,-4.61 6.4,-10.08 9.86,-11.92c2.29,-1.21 6.21,-2.16 8.91,-2.16c4.06,0 6.97,1.18 9.68,3.94c1.89,1.93 3.22,4.19 4.12,7.03l0.59,1.86l12.02,-0.09c0.32,-0.32 -0.69,-5.09 -1.68,-7.9c-2.57,-7.31 -6.65,-12.24 -12.54,-15.16c-4.15,-2.05 -6.27,-2.51 -11.51,-2.49c-3.64,0.01 -4.71,0.1 -6.46,0.59c-8.42,2.32 -16.15,8.38 -20.86,16.32c-4.09,6.9 -6.17,14.15 -6.47,22.49c-0.22,6.22 0.62,10.74 2.86,15.46c3.24,6.83 9.58,11.83 16.6,13.1c2.72,0.49 8.61,0.5 11.55,0.02zm-10.18,-1.75c-2.28,-0.35 -5.73,-1.55 -7.61,-2.66c-2.15,-1.26 -6.1,-5.26 -7.43,-7.52c-3.56,-6.04 -4.74,-12.9 -3.6,-21.03c1.2,-8.65 4.2,-15.54 9.54,-21.98c4.44,-5.34 9.58,-8.84 15.18,-10.32c2.93,-0.78 9.41,-0.86 12.26,-0.15c5.45,1.35 10.81,4.84 13.47,8.75c1.91,2.8 3.69,7.2 4.56,11.21l0.18,0.86l-8.46,0l-0.46,-1.39c-0.89,-2.77 -2.28,-5.02 -4.35,-7.08c-3.52,-3.49 -6.58,-4.63 -11.91,-4.43c-5.37,0.2 -9.25,2.04 -13.4,6.35c-5.82,6.07 -8.82,13.77 -8.82,22.67c0,4.85 0.86,8.02 3.1,11.46c3.1,4.74 8.18,7.31 13.83,7c5.74,-0.32 10.36,-2.78 14.75,-7.85l2.05,-2.38l9.14,-0.01l-0.78,1.54c-4.07,8.07 -11.73,14.5 -19.63,16.47c-2.59,0.64 -8.84,0.91 -11.61,0.49zm46.83,1.38c1.63,-9.97 4.15,-18.54 5.36,-26.74l23.45,-0.22l2.29,-12.92l-23.22,-0.16l2.54,-13.72l23.05,0.06l2.5,-12.42l-36.89,-0.19l-12.3,66.21l13.22,0.1c0,0 0,0 0,0zm-10.85,-2.57c4.22,-21.65 7.59,-41.28 11.54,-61.45l32.57,-0.04l-1.68,8.07l-23.34,0.13l-3.48,17.98l23.44,0.01l-1.21,8.47l-23.5,0l-5.5,26.79c-2.95,0.01 -5.89,0.03 -8.84,0.04c0.16,-0.65 0,0 0,0zm75.3,-10.03l-22.8,0.01l2.81,-14.43l23.26,0c0.43,-4.76 1.86,-9.03 1.86,-13.23l-22.74,0l2.5,-13.36l23.15,-0.14l2.43,-12.38l-37.01,-0.04l-12.29,66.4c12.13,-0.04 24.27,-0.09 36.4,-0.13l2.43,-12.7zm-24.92,-51.46l32.88,0.26l-1.78,8.2l-23.1,0.14c-1.25,6.09 -2.59,12.3 -3.65,17.59l23.06,0.14l-1.37,8.32l-23.36,0.14l-3.92,18.69l23.62,-0.02c-0.52,2.89 -1.02,5.4 -1.68,8.45l-32.46,0l11.76,-61.91zm-77.01,49.85c4.27,-1.1 7.98,-4.01 10.9,-8.55l1.05,-1.61l14.83,-0.01l1.39,-7.6c0.77,-4.19 1.39,-7.7 1.38,-7.81l-13.67,-0.03l-0.35,-1.93c-0.68,-3.7 -3.49,-7.8 -6.4,-9.54c-2.82,-1.68 -5.73,-2.02 -9.93,-1.15c-3.53,0.73 -5.64,1.92 -8.35,4.74c-2.59,2.7 -3.95,4.68 -5.1,7.43c-3.12,7.45 -3.17,16.18 -0.12,20.93c1.61,2.52 4.44,4.7 6.8,5.26c2.49,0.46 5.16,0.44 7.57,-0.13zm70.8,-37.42l-21.33,0l-1.67,9.33l21.26,0.06l1.74,-9.39z" fill="#008e5a"/>
  </symbol>
 </defs>
 <g class="layer">
  <title>Layer 1</title>
  <use id="svg_3" transform="matrix(0.689234, 0, 0, 0.689234, -13.5145, -57.6768)" x="-205.91" xlink:href="#svg_2" y="226.61"/>
  <rect fill="#ffffff" height="96" id="svg_5" stroke="#ffffff" width="397" x="1" y="302"/>
 </g>
</svg>