<?xml version="1.0"?>
<svg width="400" height="400" xmlns="http://www.w3.org/2000/svg" xmlns:svg="http://www.w3.org/2000/svg" preserveAspectRatio="xMidYMid meet" version="1.0">

 <g class="layer">
  <title>Layer 1</title>
  <path d="m1,200l0,200l200,0l200,0l0,-200l0,-200l-200,0l-200,0l0,200zm254,-188.6c14.3,2.8 17.5,3.5 23,5c5.4,1.6 7,2.2 16,6.4c2.5,1.2 5.6,2.6 7,3.2c2.8,1.1 3.9,1.8 13.4,7.9c3.8,2.5 8.7,6.3 11,8.4c10.6,9.9 13.6,13.1 16.3,17c1.5,2.3 4.5,6.4 6.5,9c2.1,2.7 3.8,5.5 3.8,6.2c0,0.7 0.7,1.8 1.6,2.5c0.8,0.8 2.2,2.7 2.9,4.4c0.8,1.7 1.9,3.8 2.4,4.6c2.2,3.7 5.1,10.9 5.1,12.7c0,1.1 0.7,2.6 1.5,3.3c0.8,0.7 1.7,2.8 2.1,4.9c0.3,2 1.3,4.7 2.1,5.9c0.8,1.3 1.7,4.9 2,8c0.3,3.2 1.4,7.2 2.5,8.9c1.7,2.9 1.9,4.8 1.6,17.7c-0.3,13.7 -0.4,14.6 -2.7,17l-2.4,2.6l-35.3,0c-27.5,0 -35.4,-0.3 -36.2,-1.3c-0.6,-0.7 -1.5,-3.1 -2.1,-5.2c-0.6,-2.2 -1.5,-6 -2.1,-8.5c-0.7,-2.5 -2,-6.2 -3.1,-8.2c-1,-2 -1.9,-4.3 -1.9,-5.1c0,-0.8 -0.9,-2.6 -2,-4c-1.1,-1.4 -2,-3.1 -2,-3.7c0,-1.4 -6.9,-10.1 -11,-14c-9.6,-9.1 -14,-11.7 -24.1,-14.6c-14.1,-4 -22.3,-4.2 -36.6,-0.9c-10.6,2.5 -23.2,6.7 -24.4,8.1c-0.6,0.8 -1.7,1.4 -2.4,1.4c-1.6,0 -9.6,6.2 -15.7,12.3c-6.4,6.2 -18.9,22.4 -21.6,27.7c-0.6,1.4 -2.6,5 -4.2,8c-1.7,3 -3,5.9 -3,6.5c0,0.6 -0.8,2.6 -1.9,4.5c-1,1.9 -2.2,5.5 -2.5,8c-0.4,2.5 -1.4,6.5 -2.1,9c-1.5,4.9 -3.5,20.8 -4.4,36c-0.5,7.3 -0.1,12.1 1.4,20.5c1.1,6 2.6,11.9 3.2,13c0.6,1.1 1.4,3.5 1.8,5.4c1.5,7 18,26.9 23.7,28.7c1.3,0.3 3,1.2 3.8,1.9c0.8,0.7 3.3,1.8 5.5,2.5c2.2,0.7 4.6,1.8 5.4,2.4c0.8,0.6 7.4,1.2 16.2,1.5c13.9,0.3 15.3,0.2 23.6,-2.5c4.8,-1.5 9.7,-3.3 10.8,-4.1c1.1,-0.7 2.6,-1.3 3.5,-1.3c2.3,0 10.9,-4.8 16,-8.8c6.7,-5.4 19,-18 19,-19.6c0,-0.7 0.9,-2.1 2,-3.1c1.1,-1 2,-2.4 2,-3.2c0,-0.7 0.6,-1.6 1.4,-1.9c0.8,-0.3 1.9,-1.8 2.5,-3.4c2,-6 3.4,-6.1 43.9,-5.8c27.6,0.2 37.3,0.6 39,1.6c2.6,1.5 2.8,3.4 0.7,5.2c-0.8,0.7 -1.5,2.4 -1.5,3.9c0,1.4 -0.9,4.3 -2,6.4c-1.1,2 -2,4.7 -2,5.9c0,1.3 -0.9,3.8 -2,5.6c-1.1,1.8 -2,4.5 -2,6.1c0,1.6 -0.9,4 -2,5.4c-1.1,1.4 -2,3.2 -2,4c0,0.8 -0.9,2.6 -2,4c-1.1,1.4 -2,3.2 -2,4c0,0.8 -0.9,2.6 -2,4c-1.1,1.4 -2,2.9 -2,3.4c0,0.5 -1.4,2.5 -3.1,4.4c-1.7,1.9 -4.7,5.9 -6.7,8.9c-3.7,5.6 -26.3,28.9 -31.7,32.5c-1.6,1.1 -4,3 -5.4,4.1c-5.3,4.4 -19.2,13.4 -21.6,14c-1.3,0.3 -2.9,1.2 -3.6,2c-0.6,0.8 -1.6,1.4 -2.2,1.4c-0.6,0 -2.9,0.9 -5.1,1.9c-5.9,2.8 -12.3,5.1 -18.6,6.6c-3,0.7 -6.8,1.8 -8.5,2.3c-3.8,1.3 -29.9,4.1 -38.5,4.1c-9.5,0 -33.9,-2.7 -38.5,-4.3c-2.2,-0.8 -5.6,-1.8 -7.5,-2.1c-1.9,-0.4 -4.4,-1.3 -5.5,-2c-1.1,-0.7 -3.5,-1.6 -5.2,-1.9c-1.7,-0.4 -3.7,-1.3 -4.3,-2.1c-0.6,-0.8 -2.4,-1.7 -4,-2c-1.6,-0.3 -3.4,-1.3 -4.1,-2.1c-0.6,-0.8 -1.6,-1.4 -2.1,-1.4c-1.4,0 -10.8,-6.2 -10.8,-7.1c0,-0.4 -0.8,-1 -1.8,-1.3c-5.6,-1.8 -29.8,-29.2 -34.9,-39.6c-0.7,-1.4 -1.7,-3.3 -2.3,-4.3c-2.6,-4.4 -3.1,-5.4 -4.1,-7.7c-0.6,-1.4 -1.9,-4.3 -3,-6.5c-1,-2.2 -1.9,-4.9 -1.9,-6c0,-1.1 -0.9,-3.8 -1.9,-6c-1,-2.2 -2.1,-6 -2.5,-8.5c-0.4,-2.5 -1.3,-6.3 -2.1,-8.5c-0.7,-2.2 -2.1,-11.8 -3.1,-21.3c-1.6,-16.5 -1.6,-18.4 0,-36.5c1,-10.6 2.4,-21.5 3.1,-24.2c0.8,-2.8 1.7,-7.5 2.1,-10.5c0.4,-3 1.1,-6.3 1.5,-7.2c0.5,-1 1.6,-4.8 2.3,-8.5c1.5,-7.3 3.8,-14.3 6.7,-20.9c1.1,-2.3 1.9,-5 1.9,-6.1c0,-1.1 0.6,-2.6 1.4,-3.2c0.8,-0.7 1.8,-2.7 2.2,-4.4c0.3,-1.8 1.5,-4.3 2.5,-5.6c1.1,-1.3 1.9,-3 1.9,-3.8c0,-0.8 0.9,-2.6 2,-4c1.1,-1.4 2,-3.2 2,-4c0,-0.8 0.9,-2.6 2,-4c1.1,-1.4 2,-3.1 2,-3.8c0,-0.6 0.9,-2 2,-3c1.1,-1 2,-2.3 2,-3c0,-0.7 0.9,-2 2,-3c1.1,-1 2,-2.2 2,-2.7c0,-0.8 8.9,-12.5 15.8,-20.7c7.7,-9.2 28.7,-28.1 31.1,-28.1c0.6,0 1.1,-0.4 1.1,-0.8c0,-1 13.6,-10 20,-13.2c2.5,-1.3 5.2,-2.7 6,-3.2c0.8,-0.4 2.6,-1.3 4,-1.8c1.4,-0.6 4.3,-1.9 6.5,-3c8.3,-4 27,-10 31.3,-10c1.5,-0.1 5.4,-0.7 8.7,-1.4c8.1,-1.9 28.2,-1.9 37.5,-0.2z" fill="#00724e" id="svg_2"/>
  <path d="m215.2,23.5c-2.4,0.7 -6.7,1.6 -9.5,2c-2.9,0.4 -6.3,1.3 -7.7,2c-1.4,0.7 -4.4,1.7 -6.5,2.1c-2.2,0.4 -5.6,1.5 -7.5,2.5c-1.9,1.1 -4.2,1.9 -5.1,1.9c-0.9,0 -2.2,0.6 -2.8,1.4c-0.7,0.8 -2.4,1.7 -3.8,2.1c-1.5,0.3 -3.8,1.5 -5.1,2.6c-1.4,1 -2.9,1.9 -3.3,1.9c-0.5,0 -3.5,1.8 -6.6,4c-3.2,2.2 -6.2,4 -6.7,4c-0.8,0 -10,7.3 -12.1,9.6c-0.5,0.6 -3.8,3.4 -7.3,6.2c-3.4,2.9 -8.8,8.2 -12,11.9c-3.1,3.8 -5.9,7 -6.2,7.3c-1.6,1.5 -10,11.8 -10,12.4c0,0.3 -1.6,2.9 -3.5,5.7c-2,2.7 -4,6 -4.6,7.2c-0.6,1.2 -2.1,4 -3.4,6.2c-4.1,7 -8.5,15.8 -8.5,17.2c0,0.7 -0.9,3 -2,5c-1.1,2.1 -2,4.5 -2,5.3c0,0.9 -0.6,2.5 -1.4,3.6c-0.8,1.1 -1.7,3.8 -2.1,6c-0.4,2.1 -1.3,4.8 -2,6c-0.8,1.2 -1.8,4.3 -2.3,7c-0.5,2.7 -1.7,7.8 -2.5,11.4c-5.2,21.3 -5.9,29.3 -5.5,58.5c0.4,22.1 0.8,27.8 2.1,31.4c0.9,2.4 1.7,5.5 1.7,7c0.1,1.4 0.8,4.4 1.6,6.6c0.9,2.2 2,5.9 2.5,8.2c0.6,2.3 1.7,4.7 2.5,5.4c0.8,0.6 1.4,1.9 1.4,2.9c0,2.1 7.9,17.8 10.9,21.6c1.1,1.4 2.1,3 2.1,3.5c0,0.7 3.1,4.2 16.1,18c2.6,2.7 5,4.9 5.4,4.9c0.4,0 2.8,1.7 5.4,3.7c2.5,2.1 6,4.7 7.6,5.8c4.8,3.3 20.3,10.5 22.5,10.5c1.2,0 4.2,0.8 6.8,1.9c12.4,4.9 45.3,6.5 67.3,3.2c7.4,-1.1 15.2,-2.7 17.4,-3.5c2.2,-0.8 4.8,-1.5 5.8,-1.6c3.2,0 20.3,-7.6 27.2,-12c1.7,-1.1 4.3,-2.7 6,-3.6c1.6,-0.9 3.5,-2.3 4.3,-3c0.7,-0.8 1.7,-1.4 2.1,-1.4c0.4,0 1.7,-0.8 2.9,-1.8c1.1,-0.9 3.5,-2.8 5.2,-4.2c8.4,-6.6 33,-32.2 33,-34.5c0,-0.4 1,-2 2.3,-3.5c4.5,-5.7 5.7,-7.4 5.7,-8.4c0,-0.5 0.7,-1.8 1.7,-2.8c1.8,-2.1 2.5,-3.2 7.1,-11.9c1.7,-3.4 3.2,-6.7 3.2,-7.3c0,-0.7 0.8,-2.3 1.8,-3.6c1.8,-2.6 4.2,-8.6 4.2,-10.8c0,-0.9 -7,-1.2 -31.8,-1.2c-35.4,0 -33.7,-0.3 -38.7,7.2c-7.2,10.6 -19.2,23.5 -27.9,29.9c-5.2,3.8 -26.3,13.9 -29.2,13.9c-0.8,0 -4,0.9 -7.1,2c-8.3,2.9 -27.1,2.9 -36.8,-0.1c-14,-4.2 -20.6,-8.2 -32.1,-19.6c-6,-6 -7.6,-8.1 -10.8,-14.9c-0.8,-1.7 -2.2,-3.6 -3,-4.4c-0.9,-0.7 -1.6,-2.1 -1.6,-3.1c0,-1.1 -0.9,-3.6 -2,-5.6c-1.1,-2.1 -2,-4.8 -2,-6c0,-1.2 -0.8,-4.2 -1.7,-6.5c-2.5,-6.1 -2.6,-38.6 -0.1,-50.3c0.9,-4.4 2.1,-10.3 2.6,-13c1.6,-8 3.3,-13.7 5.3,-18.3c1,-2.3 1.9,-5 1.9,-6c0,-0.9 0.9,-2.8 2,-4.2c1.1,-1.4 2,-3.4 2,-4.6c0,-1.1 0.9,-2.9 2,-3.9c1.1,-1 2,-2.5 2,-3.3c0,-0.8 1.8,-3.6 4,-6.2c2.2,-2.6 4,-5.1 4,-5.5c0,-0.4 1.1,-2.1 2.5,-3.9c1.4,-1.7 4,-4.9 5.8,-7c17.3,-21.4 34.4,-30.9 63.9,-35.7l13.6,-2.2l9.9,2.3c10.2,2.3 22.3,6.7 22.3,8.1c0,0.5 1.1,1.1 2.5,1.5c1.4,0.3 2.5,0.9 2.5,1.3c0,0.4 1.2,1.4 2.8,2.3c4.3,2.5 9.7,8.3 13.9,14.5c2,3.2 4.3,6.2 5,6.8c0.7,0.5 1.7,2.1 2.3,3.5c0.5,1.4 1.4,3.2 1.9,4c2.4,3.9 5.2,10.5 6.1,14.4c0.5,2.4 1.4,5.5 2,7l1,2.6l30.1,0l30.1,0l-0.7,-7.8c-0.4,-4.2 -1.3,-9.1 -2,-10.9c-0.8,-1.8 -1.7,-5.4 -2.1,-8c-0.4,-2.6 -1.3,-5.7 -2,-6.8c-0.7,-1.1 -1.6,-4.3 -2,-7c-0.4,-2.8 -1.5,-6.1 -2.5,-7.4c-1.1,-1.3 -1.9,-3.3 -1.9,-4.3c0,-1.1 -0.9,-3.1 -2,-4.5c-1.1,-1.4 -2,-3.2 -2,-4c0,-0.8 -0.9,-2.6 -2,-4c-1.1,-1.4 -2,-3.1 -2,-3.8c0,-0.6 -0.9,-2 -2,-3c-1.1,-1 -2,-2.6 -2,-3.5c0,-0.9 -0.9,-2.5 -2,-3.5c-1.1,-1 -2,-2.2 -2,-2.6c0,-2 -21.4,-23.6 -26.1,-26.4c-1,-0.6 -3.7,-2.4 -6.2,-4.2c-2.5,-1.7 -5.4,-3.4 -6.5,-3.7c-1.1,-0.4 -2.6,-1.3 -3.2,-2.1c-0.7,-0.8 -1.9,-1.5 -2.8,-1.5c-0.8,0 -3.3,-0.9 -5.6,-1.9c-5.5,-2.6 -13.2,-4.9 -24.1,-7.4c-11.6,-2.6 -42.5,-3.4 -49.3,-1.2zm33.3,8c12.4,1.5 17.1,2.6 28,6.6c2.8,1 6.2,2.1 7.7,2.5c1.5,0.3 3.2,1.2 3.9,2c0.6,0.8 1.6,1.4 2.1,1.4c2,0 12.5,5.4 16.3,8.4c2.2,1.8 5.3,4 6.8,4.9c5.5,3.5 19.7,19.1 19.7,21.6c0,0.6 0.4,1.1 0.8,1.1c0.5,0 2.2,2.1 3.8,4.7c2.8,4.4 4,6.8 9.6,19.3c4.2,9.2 4.8,10.6 5.7,14.5c0.6,2.2 1.6,6 2.4,8.5c3.6,11.1 3.8,13.4 1.6,15.2c-1.9,1.6 -4.5,1.8 -20.6,1.8c-22.3,0 -25.3,-1 -25.3,-8.3c0,-1.2 -0.9,-3.6 -2,-5.2c-1.1,-1.7 -2,-4 -2,-5.1c0,-1.2 -0.7,-2.7 -1.5,-3.4c-0.8,-0.7 -2,-3 -2.5,-5.1c-0.6,-2.2 -1.5,-3.9 -2,-3.9c-0.5,0 -1.1,-0.9 -1.5,-2c-1.3,-4.2 -23.8,-25 -27,-25c-0.7,0 -2.4,-0.9 -3.8,-2c-1.4,-1.1 -3.2,-2 -4,-2c-0.8,0 -3.4,-0.9 -5.8,-1.9c-6.2,-2.7 -24.4,-4.2 -37.2,-3c-10,0.9 -20.3,3.4 -28.2,6.9c-2.2,1 -5.1,2.3 -6.5,2.9c-5,2.2 -18.2,12.4 -26.4,20.5c-5.6,5.5 -20.2,23.4 -21.6,26.6c-0.6,1.4 -2.1,4.3 -3.5,6.5c-1.3,2.2 -2.9,5.1 -3.5,6.5c-0.6,1.4 -2,4.5 -3.1,7c-6,13.5 -7.9,19 -9.4,28.5c-0.7,4.4 -1.8,9.3 -2.4,10.8c-3.2,8.3 -3,52.8 0.3,60.8c0.7,1.9 1.7,5.6 2.1,8.4c0.4,2.7 1.3,5.7 2,6.5c0.7,0.8 1.6,2.6 2,4c0.4,1.4 1.6,3.6 2.6,4.9c1.1,1.3 1.9,2.9 1.9,3.6c0,0.6 0.9,2 2,3c1.1,1 2,2.2 2,2.7c0,2.9 23.2,22.8 26.7,22.8c0.6,0 1.6,0.6 2.2,1.4c0.7,0.8 2.7,1.8 4.4,2.2c1.8,0.3 4.8,1.4 6.7,2.4c2,1 8.3,2.2 14.5,2.9c9.1,1 12.9,0.9 22.3,-0.3c6.1,-0.9 12.5,-2.2 14.2,-3.1c1.6,-0.8 3.7,-1.5 4.7,-1.5c1,0 3.2,-0.7 4.8,-1.6c1.7,-0.9 4.6,-2.1 6.6,-2.8c9.7,-3.4 21.6,-13.4 40.9,-34.3l8.5,-9.3l22,0c12.1,0 22.6,0.4 23.4,0.9c1.5,1 0.1,4.6 -5.4,13.6c-1.3,2.2 -2.7,4.7 -3,5.5c-0.8,2 -1.3,2.7 -5.9,9.6c-4,5.9 -4.8,7 -8.3,10.9c-1,1.1 -4.2,4.9 -7.1,8.5c-5.9,7 -17.4,17.5 -24.2,22c-1.3,0.8 -3.5,2.5 -5,3.7c-1.5,1.3 -3.3,2.3 -3.9,2.3c-0.5,0 -1.8,0.8 -2.8,1.9c-1,1 -2.9,2.2 -4.3,2.6c-1.4,0.4 -3.2,1.3 -4,2c-0.8,0.7 -2.6,1.6 -4,2c-1.4,0.4 -3.2,1.3 -4,2c-0.8,0.7 -2.6,1.6 -4,2c-1.4,0.3 -3.8,1.2 -5.5,2c-24.3,10.6 -75.4,10.6 -98,0c-1.6,-0.8 -4.1,-1.9 -5.5,-2.5c-1.4,-0.6 -4.3,-2.2 -6.5,-3.5c-2.2,-1.4 -5.1,-3 -6.5,-3.7c-3.2,-1.6 -4.1,-2.3 -14.9,-12.8c-9.7,-9.4 -16.5,-17.4 -17.5,-20.7c-0.4,-1.1 -1.3,-2.4 -2.1,-2.7c-0.8,-0.3 -1.5,-1.2 -1.5,-2c0,-0.8 -0.6,-2.1 -1.3,-2.8c-1.5,-1.6 -6.7,-11.6 -6.7,-13c0,-0.5 -0.7,-2.4 -1.5,-4.1c-2.2,-4.7 -5.1,-15.1 -8.5,-30.4c-1.7,-7.6 -2,-12.7 -2,-29.5c0.1,-11.2 0.5,-22.3 1.1,-24.8c0.5,-2.5 1.4,-7.4 2,-11c0.6,-3.6 1.9,-9.4 2.9,-13c0.9,-3.6 2.3,-8.5 2.9,-11c0.7,-2.5 1.8,-6.8 2.5,-9.5c0.8,-2.8 2.1,-6.4 3,-8c0.9,-1.7 1.6,-3.6 1.6,-4.3c0,-0.7 0.9,-3 1.9,-5c1.1,-2 3,-6 4.2,-8.7c1.2,-2.8 2.6,-5.7 3,-6.5c1.4,-2.5 4.5,-8.3 6.3,-11.7c1,-1.8 2.2,-3.5 2.7,-3.8c0.5,-0.4 1.5,-2.1 2.3,-3.8c0.7,-1.8 2.7,-4.7 4.5,-6.4c1.7,-1.7 3.1,-3.6 3.1,-4.1c0,-0.5 0.9,-1.7 2,-2.7c1.1,-1 2,-2.3 2,-3c0,-1.5 24,-25.9 30.5,-31.1c4.2,-3.4 12.3,-8.8 21,-14.2c1.1,-0.7 3.1,-1.7 4.5,-2.2c1.4,-0.6 4.5,-2 7,-3.2c9.9,-4.6 15.7,-6.5 27,-8.8c15.1,-3.1 24,-3.4 40.5,-1.5z" fill="#00724e" id="svg_3"/>
  <rect fill="#00724e" height="0" id="svg_5" stroke="null" stroke-dasharray="null" stroke-linecap="null" stroke-linejoin="null" stroke-opacity="null" width="0" x="-174" y="-45"/>
 </g>
</svg>