<?xml version="1.0" encoding="utf-8"?>
<!DOCTYPE svg PUBLIC "-//W3C//DTD SVG 20010904//EN" "http://www.w3.org/TR/2001/REC-SVG-20010904/DTD/svg10.dtd">
<svg version="1.0" xmlns="http://www.w3.org/2000/svg" width="27pt" height="17pt" viewBox="0 0 27 17" style="" preserveAspectRatio="xMidYMid meet">
<g fill="#0092FFFF" stroke="#0092FFFF">
<path d="M 18.000 4.729 C 16.075 6.136 15.298 7.008 16.273 6.666 C 17.748 6.149 17.879 6.358 17.050 7.907 C 16.501 8.932 15.028 10.045 13.776 10.382 C 12.524 10.719 10.375 11.885 9.000 12.975 L 6.500 14.956 9.128 14.978 C 10.573 14.990 12.315 14.325 13.000 13.500 C 13.685 12.675 15.000 12.000 15.922 12.000 C 16.845 12.000 18.117 11.483 18.749 10.851 C 19.614 9.986 20.589 10.125 22.699 11.411 L 25.500 13.119 23.250 11.149 C 22.013 10.066 21.000 8.967 21.000 8.706 C 21.000 8.446 22.013 7.889 23.250 7.467 C 25.362 6.748 25.329 6.695 22.723 6.601 L 19.946 6.500 22.195 4.250 C 25.333 1.111 22.509 1.433 18.000 4.729 "/></g>
<g fill="#FF9A00FF" stroke="#FF9A00FF">
<path d="M 19.250 1.739 L 25.000 2.100 25.000 8.550 L 25.000 15.000 13.570 15.000 C 2.511 15.000 2.125 14.927 1.706 12.750 C 1.334 10.821 1.253 10.892 1.136 13.250 L 1.000 16.000 13.500 16.000 L 26.000 16.000 26.000 8.500 L 26.000 1.000 19.750 1.189 L 13.500 1.378 19.250 1.739 "/></g>
<g fill="#00075BFF" stroke="#00075BFF">
<path d="M 3.103 3.473 C 2.679 4.038 2.370 5.846 2.416 7.492 L 2.500 10.484 4.952 6.992 C 6.300 5.071 7.875 3.167 8.452 2.760 C 9.028 2.353 8.234 2.116 6.687 2.233 C 5.140 2.351 3.527 2.909 3.103 3.473 "/></g>
<g fill="#001F7EFF" stroke="#001F7EFF">
<path d="M 8.494 2.765 C 7.078 3.800 2.000 10.714 2.000 11.608 C 2.000 12.015 3.125 11.292 4.500 10.000 C 5.875 8.708 7.000 7.069 7.000 6.358 C 7.000 5.646 8.238 4.393 9.750 3.572 C 11.263 2.751 11.825 2.069 11.000 2.055 C 10.175 2.042 9.047 2.361 8.494 2.765 "/></g>
<g fill="#52CBFFFF" stroke="#52CBFFFF">
<path d="M 7.764 8.857 C 6.375 10.273 6.275 10.894 7.264 11.961 C 8.267 13.043 8.170 13.178 6.750 12.679 C 5.788 12.340 5.000 12.424 5.000 12.865 C 5.000 14.655 6.362 14.809 8.693 13.282 C 10.823 11.886 10.940 11.546 9.555 10.771 C 8.557 10.212 8.244 9.349 8.726 8.480 C 9.152 7.714 8.719 7.883 7.764 8.857 "/></g>
<g fill="#0076F2FF" stroke="#0076F2FF">
<path d="M 21.597 9.398 L 18.693 10.569 21.311 12.284 C 24.858 14.608 26.059 14.399 23.139 11.967 C 21.341 10.469 21.162 10.000 22.389 10.000 C 23.275 10.000 24.113 9.601 24.250 9.114 C 24.388 8.626 23.193 8.754 21.597 9.398 "/></g>
<g fill="#0046B0FF" stroke="#0046B0FF">
<path d="M 14.258 13.192 C 13.274 14.136 13.379 14.442 14.758 14.660 C 17.140 15.036 20.000 14.074 20.000 12.897 C 20.000 12.297 19.266 12.323 18.066 12.965 C 15.640 14.263 14.932 14.272 15.250 13.000 C 15.388 12.450 14.941 12.537 14.258 13.192 "/></g>
<g fill="#4182B7FF" stroke="#4182B7FF">
<path d="M 7.500 8.000 L 3.666 12.729 7.500 8.000 L 11.334 3.271 7.500 8.000 "/></g>
<g fill="#001F7EFF" stroke="#001F7EFF">
<path d="M 17.000 12.082 C 15.826 12.903 15.990 12.993 17.750 12.498 C 19.073 12.126 20.000 12.305 20.000 12.933 C 20.000 13.520 19.550 14.068 19.000 14.150 C 18.450 14.233 18.563 14.345 19.250 14.400 C 20.729 14.518 20.951 11.810 19.500 11.350 C 18.950 11.175 17.825 11.505 17.000 12.082 "/></g>
<g fill="#001F7EFF" stroke="#001F7EFF">
<path d="M 12.088 4.288 L 8.676 6.500 11.917 5.000 C 13.699 4.175 15.235 3.180 15.329 2.788 C 15.423 2.396 13.965 3.071 12.088 4.288 "/></g>
<g fill="#001F7EFF" stroke="#001F7EFF">
<path d="M 6.015 11.099 C 4.648 12.069 3.748 13.075 4.015 13.334 C 4.282 13.593 5.400 12.799 6.500 11.570 L 8.500 9.334 6.015 11.099 "/></g>
<g fill="#001F7EFF" stroke="#001F7EFF">
<path d="M 21.980 4.610 L 19.500 7.339 22.216 5.420 C 23.710 4.364 24.826 3.136 24.696 2.691 C 24.567 2.245 23.344 3.109 21.980 4.610 "/></g>
<g fill="#002C98FF" stroke="#002C98FF">
<path d="M 14.500 7.641 C 12.121 8.703 12.018 8.854 14.000 8.369 C 15.375 8.033 16.725 7.431 17.000 7.030 C 17.275 6.630 16.150 6.905 14.500 7.641 "/></g>
<g fill="#B1F2FFFF" stroke="#B1F2FFFF">
<path d="M 7.559 11.532 C 5.063 13.420 5.989 13.408 9.636 11.506 C 11.211 10.685 11.825 10.024 11.000 10.038 C 10.175 10.052 8.626 10.724 7.559 11.532 "/></g>
<g fill="#0092FFFF" stroke="#0092FFFF">
<path d="M 15.000 3.718 C 13.283 4.578 13.028 4.975 14.185 4.985 C 15.111 4.993 16.236 4.430 16.685 3.732 C 17.342 2.711 17.014 2.708 15.000 3.718 "/></g>
<g fill="#52CBFFFF" stroke="#52CBFFFF">
<path d="M 12.836 6.236 C 13.292 6.692 14.528 6.721 15.583 6.300 C 17.186 5.661 17.050 5.525 14.754 5.471 C 13.243 5.436 12.380 5.780 12.836 6.236 "/></g>
<g fill="#000000FF" stroke="#000000FF">
<path d="M 13.445 9.089 C 13.135 9.590 13.509 10.000 14.274 10.000 C 16.282 10.000 17.326 8.665 15.526 8.401 C 14.691 8.278 13.755 8.588 13.445 9.089 "/></g>
<g fill="#B1F2FFFF" stroke="#B1F2FFFF">
<path d="M 11.441 6.552 C 9.679 7.962 9.777 7.965 12.500 6.592 C 14.150 5.761 15.024 5.062 14.441 5.040 C 13.859 5.018 12.509 5.699 11.441 6.552 "/></g>
<g fill="#001F7EFF" stroke="#001F7EFF">
<path d="M 22.500 8.089 C 20.810 8.740 20.771 8.870 22.250 8.930 C 23.213 8.968 24.113 8.622 24.250 8.159 C 24.388 7.697 23.600 7.665 22.500 8.089 "/></g>
<g fill="#001F7EFF" stroke="#001F7EFF">
<path d="M 17.500 3.000 C 17.160 3.550 17.332 4.000 17.882 4.000 C 18.432 4.000 19.160 3.550 19.500 3.000 C 19.840 2.450 19.668 2.000 19.118 2.000 C 18.568 2.000 17.840 2.450 17.500 3.000 "/></g>
<g fill="#0092FFFF" stroke="#0092FFFF">
<path d="M 11.000 8.000 C 10.175 8.533 9.950 8.969 10.500 8.969 C 11.050 8.969 12.175 8.533 13.000 8.000 C 13.825 7.467 14.050 7.031 13.500 7.031 C 12.950 7.031 11.825 7.467 11.000 8.000 "/></g>
<g fill="#52CBFFFF" stroke="#52CBFFFF">
<path d="M 13.952 2.931 C 14.751 3.446 15.839 3.599 16.370 3.271 C 16.901 2.943 16.248 2.521 14.918 2.334 C 13.116 2.081 12.870 2.233 13.952 2.931 "/></g>
<g fill="#001F7EFF" stroke="#001F7EFF">
<path d="M 13.378 13.378 L 12.500 14.256 13.378 13.378 L 14.256 12.500 13.378 13.378 "/></g>
<g fill="#0046B0FF" stroke="#0046B0FF">
<path d="M 21.000 12.800 C 21.000 13.460 21.540 14.000 22.200 14.000 C 23.133 14.000 23.133 13.733 22.200 12.800 C 21.267 11.867 21.000 11.867 21.000 12.800 "/></g>
<g fill="#0046B0FF" stroke="#0046B0FF">
<path d="M 23.624 9.799 C 23.212 10.466 23.390 11.000 24.024 11.000 C 24.653 11.000 24.987 10.460 24.766 9.799 C 24.455 8.865 24.202 8.865 23.624 9.799 "/></g>
<g fill="#52CBFFFF" stroke="#52CBFFFF">
<path d="M 22.422 6.126 C 21.910 6.955 22.224 6.963 23.613 6.157 C 24.651 5.554 24.964 5.047 24.309 5.030 C 23.654 5.014 22.805 5.507 22.422 6.126 "/></g>
<g fill="#52CBFFFF" stroke="#52CBFFFF">
<path d="M 19.378 3.378 L 18.500 4.256 19.378 3.378 L 20.256 2.500 19.378 3.378 "/></g>
<g fill="#0076F2FF" stroke="#0076F2FF">
<path d="M 22.422 5.126 C 21.910 5.955 22.224 5.963 23.613 5.157 C 24.651 4.554 24.964 4.047 24.309 4.030 C 23.654 4.014 22.805 4.507 22.422 5.126 "/></g>
</svg>
