<?xml version="1.0" encoding="utf-8"?>
<!DOCTYPE svg PUBLIC "-//W3C//DTD SVG 20010904//EN" "http://www.w3.org/TR/2001/REC-SVG-20010904/DTD/svg10.dtd">
<svg version="1.0" xmlns="http://www.w3.org/2000/svg" width="27pt" height="17pt" viewBox="0 0 27 17" style="" preserveAspectRatio="xMidYMid meet">
<g fill="#000000FF" stroke="#000000FF">
<path d="M 11.250 3.080 C 12.213 3.641 13.000 4.658 13.000 5.341 C 13.000 6.024 15.517 7.818 18.594 9.327 C 22.513 11.249 24.019 12.509 23.625 13.535 C 23.316 14.341 23.499 15.000 24.031 15.000 C 24.564 15.000 25.000 12.075 25.000 8.500 L 25.000 2.000 17.250 2.030 C 11.497 2.053 9.951 2.323 11.250 3.080 "/></g>
<g fill="#C18D00FF" stroke="#C18D00FF">
<path d="M 1.168 5.250 L 1.336 9.500 1.728 5.750 L 2.121 2.000 13.560 2.000 L 25.000 2.000 25.000 8.500 L 25.000 15.000 13.570 15.000 C 2.511 15.000 2.125 14.927 1.706 12.750 C 1.334 10.821 1.253 10.892 1.136 13.250 L 1.000 16.000 13.500 16.000 L 26.000 16.000 26.000 8.500 L 26.000 1.000 13.500 1.000 L 1.000 1.000 1.168 5.250 "/></g>
<g fill="#000000FF" stroke="#000000FF">
<path d="M 11.000 12.500 C 11.000 14.855 11.305 14.997 16.250 14.955 L 21.500 14.910 17.000 12.500 C 11.323 9.460 11.000 9.460 11.000 12.500 "/></g>
<g fill="#765205FF" stroke="#765205FF">
<path d="M 9.299 3.598 C 11.548 4.817 11.953 5.546 11.359 7.308 C 10.952 8.513 10.619 10.400 10.618 11.500 C 10.617 12.600 10.702 12.768 10.808 11.872 C 11.231 8.290 13.523 7.827 18.981 10.219 L 24.184 12.500 18.592 9.542 C 15.516 7.915 13.000 6.018 13.000 5.327 C 13.000 3.947 9.893 1.977 7.816 2.040 C 7.092 2.062 7.760 2.763 9.299 3.598 "/></g>
<g fill="#CB9D21FF" stroke="#CB9D21FF">
<path d="M 5.338 6.825 C 4.538 8.094 4.853 8.883 6.753 10.378 C 8.787 11.977 9.345 12.065 10.083 10.900 C 11.387 8.840 11.235 8.384 8.684 6.712 C 6.595 5.344 6.266 5.355 5.338 6.825 "/></g>
<g fill="#C18D00FF" stroke="#C18D00FF">
<path d="M 13.000 8.829 C 13.000 9.945 22.834 14.500 23.597 13.737 C 23.928 13.406 21.919 11.979 19.133 10.567 C 13.599 7.763 13.000 7.593 13.000 8.829 "/></g>
<g fill="#E9C258FF" stroke="#E9C258FF">
<path d="M 7.000 4.465 C 7.000 5.270 7.873 6.397 8.939 6.968 C 11.612 8.398 12.920 6.146 10.462 4.348 C 8.077 2.605 7.000 2.641 7.000 4.465 "/></g>
<g fill="#000000FF" stroke="#000000FF">
<path d="M 2.000 5.714 C 2.000 9.222 2.095 9.333 3.714 7.714 C 4.949 6.479 5.056 6.000 4.098 6.000 C 3.259 6.000 2.960 5.260 3.290 4.000 C 3.577 2.900 3.405 2.000 2.906 2.000 C 2.408 2.000 2.000 3.671 2.000 5.714 "/></g>
<g fill="#F4DA93FF" stroke="#F4DA93FF">
<path d="M 12.000 9.467 C 12.000 10.085 21.638 15.018 22.717 14.952 C 23.148 14.925 20.913 13.568 17.750 11.936 C 14.588 10.304 12.000 9.193 12.000 9.467 "/></g>
<g fill="#F4DA93FF" stroke="#F4DA93FF">
<path d="M 6.000 3.833 C 6.000 4.475 5.213 5.007 4.250 5.015 C 3.055 5.026 2.882 5.274 3.706 5.797 C 4.369 6.218 4.681 6.999 4.400 7.532 C 4.118 8.064 4.649 7.473 5.580 6.219 C 6.510 4.964 6.985 3.652 6.635 3.302 C 6.286 2.953 6.000 3.192 6.000 3.833 "/></g>
<g fill="#000000FF" stroke="#000000FF">
<path d="M 2.000 13.443 C 2.000 14.385 2.878 15.000 4.223 15.000 L 6.445 15.000 4.223 13.443 C 2.211 12.034 2.000 12.034 2.000 13.443 "/></g>
<g fill="#C18D00FF" stroke="#C18D00FF">
<path d="M 3.000 4.000 C 3.000 4.550 3.702 5.000 4.559 5.000 C 5.416 5.000 5.840 4.550 5.500 4.000 C 5.160 3.450 4.459 3.000 3.941 3.000 C 3.423 3.000 3.000 3.450 3.000 4.000 "/></g>
</svg>
